<svg xmlns="http://www.w3.org/2000/svg" width="1200" height="760" viewBox="0 0 1200 760" role="img" aria-labelledby="title desc">
  <title id="title">Generated background example</title>
  <desc id="desc">A synthetic abstract generated background placeholder.</desc>
  <defs>
    <linearGradient id="sunset" x1="0" y1="0" x2="1" y2="1">
      <stop offset="0%" stop-color="#20133f"/>
      <stop offset="38%" stop-color="#d94f30"/>
      <stop offset="72%" stop-color="#f5b84b"/>
      <stop offset="100%" stop-color="#f8ead2"/>
    </linearGradient>
    <radialGradient id="glow" cx="65%" cy="36%" r="45%">
      <stop offset="0%" stop-color="#fff2b8" stop-opacity="0.95"/>
      <stop offset="100%" stop-color="#fff2b8" stop-opacity="0"/>
    </radialGradient>
  </defs>
  <rect width="1200" height="760" fill="url(#sunset)"/>
  <rect width="1200" height="760" fill="url(#glow)"/>
  <path d="M0 575 C180 510 250 610 420 545 C590 480 690 585 870 520 C1010 470 1110 505 1200 460 L1200 760 L0 760 Z" fill="#17202a" opacity="0.88"/>
  <path d="M0 625 C210 570 330 650 520 600 C740 542 900 630 1200 560 L1200 760 L0 760 Z" fill="#0f1720" opacity="0.92"/>
  <circle cx="800" cy="255" r="96" fill="#fff0aa" opacity="0.45"/>
  <circle cx="805" cy="260" r="58" fill="#fff7cc" opacity="0.7"/>
  <text x="60" y="690" fill="#fff8e8" font-family="Inter, Arial, sans-serif" font-size="20">Synthetic generated background layer</text>
</svg>
